<?xml version="1.0" encoding="UTF-8" standalone="no"?>
<!DOCTYPE svg PUBLIC "-//W3C//DTD SVG 1.1//EN"
 "http://www.w3.org/Graphics/SVG/1.1/DTD/svg11.dtd">
<!-- Generated by graphviz version 2.26.3 (20100126.1600)
 -->
<!-- Title: controllers_diagram Pages: 1 -->
<svg width="716pt" height="481pt"
 viewBox="0.00 0.00 716.00 481.09" xmlns="http://www.w3.org/2000/svg" xmlns:xlink="http://www.w3.org/1999/xlink">
<g id="graph1" class="graph" transform="scale(1 1) rotate(0) translate(4 477.087)">
<title>controllers_diagram</title>
<polygon fill="white" stroke="white" points="-4,5 -4,-477.087 713,-477.087 713,5 -4,5"/>
<!-- _diagram_info -->
<g id="node1" class="node"><title>_diagram_info</title>
<text text-anchor="start" x="465" y="-344.3" font-family="Times Roman,serif" font-size="13.00">Controllers diagram</text>
<text text-anchor="start" x="465" y="-327.3" font-family="Times Roman,serif" font-size="13.00">Date: May 16 2013 &#45; 00:53</text>
<text text-anchor="start" x="465" y="-310.3" font-family="Times Roman,serif" font-size="13.00">Migration version: 20130515213358</text>
<text text-anchor="start" x="465" y="-293.3" font-family="Times Roman,serif" font-size="13.00">Generated by RailRoady 1.1.0</text>
<text text-anchor="start" x="465" y="-276.3" font-family="Times Roman,serif" font-size="13.00">http://railroady.prestonlee.com</text>
</g>
<!-- UsersController -->
<g id="node2" class="node"><title>UsersController</title>
<polyline fill="none" stroke="black" points="92.3283,-4.54866 192.328,-4.54866 "/>
<path fill="none" stroke="black" d="M192.328,-4.54866C198.328,-4.54866 204.328,-10.5487 204.328,-16.5487"/>
<polyline fill="none" stroke="black" points="204.328,-16.5487 204.328,-112.549 "/>
<path fill="none" stroke="black" d="M204.328,-112.549C204.328,-118.549 198.328,-124.549 192.328,-124.549"/>
<polyline fill="none" stroke="black" points="192.328,-124.549 92.3283,-124.549 "/>
<path fill="none" stroke="black" d="M92.3283,-124.549C86.3283,-124.549 80.3283,-118.549 80.3283,-112.549"/>
<polyline fill="none" stroke="black" points="80.3283,-112.549 80.3283,-16.5487 "/>
<path fill="none" stroke="black" d="M80.3283,-16.5487C80.3283,-10.5487 86.3283,-4.54866 92.3283,-4.54866"/>
<text text-anchor="middle" x="142.328" y="-107.949" font-family="Times Roman,serif" font-size="14.00">UsersController</text>
<polyline fill="none" stroke="black" points="80.3283,-98.5487 204.328,-98.5487 "/>
<text text-anchor="start" x="88.3283" y="-81.9487" font-family="Times Roman,serif" font-size="14.00">create</text>
<text text-anchor="start" x="88.3283" y="-63.9487" font-family="Times Roman,serif" font-size="14.00">new</text>
<polyline fill="none" stroke="black" points="80.3283,-54.5487 204.328,-54.5487 "/>
<polyline fill="none" stroke="black" points="80.3283,-30.5487 204.328,-30.5487 "/>
<text text-anchor="start" x="88.3283" y="-13.9487" font-family="Times Roman,serif" font-size="14.00">_layout</text>
</g>
<!-- ProjectsController -->
<g id="node3" class="node"><title>ProjectsController</title>
<polyline fill="none" stroke="black" points="301.051,-1.5 417.051,-1.5 "/>
<path fill="none" stroke="black" d="M417.051,-1.5C423.051,-1.5 429.051,-7.5 429.051,-13.5"/>
<polyline fill="none" stroke="black" points="429.051,-13.5 429.051,-199.5 "/>
<path fill="none" stroke="black" d="M429.051,-199.5C429.051,-205.5 423.051,-211.5 417.051,-211.5"/>
<polyline fill="none" stroke="black" points="417.051,-211.5 301.051,-211.5 "/>
<path fill="none" stroke="black" d="M301.051,-211.5C295.051,-211.5 289.051,-205.5 289.051,-199.5"/>
<polyline fill="none" stroke="black" points="289.051,-199.5 289.051,-13.5 "/>
<path fill="none" stroke="black" d="M289.051,-13.5C289.051,-7.5 295.051,-1.5 301.051,-1.5"/>
<text text-anchor="middle" x="359.051" y="-194.9" font-family="Times Roman,serif" font-size="14.00">ProjectsController</text>
<polyline fill="none" stroke="black" points="289.051,-185.5 429.051,-185.5 "/>
<text text-anchor="start" x="297.051" y="-168.9" font-family="Times Roman,serif" font-size="14.00">create</text>
<text text-anchor="start" x="297.051" y="-150.9" font-family="Times Roman,serif" font-size="14.00">destroy</text>
<text text-anchor="start" x="297.051" y="-132.9" font-family="Times Roman,serif" font-size="14.00">edit</text>
<text text-anchor="start" x="297.051" y="-114.9" font-family="Times Roman,serif" font-size="14.00">index</text>
<text text-anchor="start" x="297.051" y="-96.9" font-family="Times Roman,serif" font-size="14.00">new</text>
<text text-anchor="start" x="297.051" y="-78.9" font-family="Times Roman,serif" font-size="14.00">show</text>
<text text-anchor="start" x="297.051" y="-60.9" font-family="Times Roman,serif" font-size="14.00">update</text>
<polyline fill="none" stroke="black" points="289.051,-51.5 429.051,-51.5 "/>
<polyline fill="none" stroke="black" points="289.051,-27.5 429.051,-27.5 "/>
<text text-anchor="start" x="297.051" y="-10.9" font-family="Times Roman,serif" font-size="14.00">_layout</text>
</g>
<!-- ApplicationController -->
<g id="node4" class="node"><title>ApplicationController</title>
<polyline fill="none" stroke="black" points="13,-266.249 227,-266.249 "/>
<path fill="none" stroke="black" d="M227,-266.249C233,-266.249 239,-272.249 239,-278.249"/>
<polyline fill="none" stroke="black" points="239,-278.249 239,-356.249 "/>
<path fill="none" stroke="black" d="M239,-356.249C239,-362.249 233,-368.249 227,-368.249"/>
<polyline fill="none" stroke="black" points="227,-368.249 13,-368.249 "/>
<path fill="none" stroke="black" d="M13,-368.249C7,-368.249 1,-362.249 1,-356.249"/>
<polyline fill="none" stroke="black" points="1,-356.249 1,-278.249 "/>
<path fill="none" stroke="black" d="M1,-278.249C1,-272.249 7,-266.249 13,-266.249"/>
<text text-anchor="middle" x="120" y="-351.649" font-family="Times Roman,serif" font-size="14.00">ApplicationController</text>
<polyline fill="none" stroke="black" points="1,-342.249 239,-342.249 "/>
<text text-anchor="start" x="9" y="-325.649" font-family="Times Roman,serif" font-size="14.00">_one_time_conditions_valid_12?</text>
<polyline fill="none" stroke="black" points="1,-316.249 239,-316.249 "/>
<polyline fill="none" stroke="black" points="1,-292.249 239,-292.249 "/>
<text text-anchor="start" x="9" y="-275.649" font-family="Times Roman,serif" font-size="14.00">_layout</text>
</g>
<!-- ApplicationController&#45;&gt;UsersController -->
<g id="edge2" class="edge"><title>ApplicationController&#45;&gt;UsersController</title>
<path fill="none" stroke="black" d="M124.518,-266.112C128.125,-225.298 133.186,-168.022 136.991,-124.951"/>
</g>
<!-- ApplicationController&#45;&gt;ProjectsController -->
<g id="edge4" class="edge"><title>ApplicationController&#45;&gt;ProjectsController</title>
<path fill="none" stroke="black" d="M177.868,-266.233C211.307,-236.752 253.613,-199.455 288.933,-168.317"/>
</g>
<!-- TasksController -->
<g id="node5" class="node"><title>TasksController</title>
<polyline fill="none" stroke="black" points="282.435,-261.587 380.435,-261.587 "/>
<path fill="none" stroke="black" d="M380.435,-261.587C386.435,-261.587 392.435,-267.587 392.435,-273.587"/>
<polyline fill="none" stroke="black" points="392.435,-273.587 392.435,-459.587 "/>
<path fill="none" stroke="black" d="M392.435,-459.587C392.435,-465.587 386.435,-471.587 380.435,-471.587"/>
<polyline fill="none" stroke="black" points="380.435,-471.587 282.435,-471.587 "/>
<path fill="none" stroke="black" d="M282.435,-471.587C276.435,-471.587 270.435,-465.587 270.435,-459.587"/>
<polyline fill="none" stroke="black" points="270.435,-459.587 270.435,-273.587 "/>
<path fill="none" stroke="black" d="M270.435,-273.587C270.435,-267.587 276.435,-261.587 282.435,-261.587"/>
<text text-anchor="middle" x="331.435" y="-454.987" font-family="Times Roman,serif" font-size="14.00">TasksController</text>
<polyline fill="none" stroke="black" points="270.435,-445.587 392.435,-445.587 "/>
<text text-anchor="start" x="278.435" y="-428.987" font-family="Times Roman,serif" font-size="14.00">create</text>
<text text-anchor="start" x="278.435" y="-410.987" font-family="Times Roman,serif" font-size="14.00">destroy</text>
<text text-anchor="start" x="278.435" y="-392.987" font-family="Times Roman,serif" font-size="14.00">edit</text>
<text text-anchor="start" x="278.435" y="-374.987" font-family="Times Roman,serif" font-size="14.00">index</text>
<text text-anchor="start" x="278.435" y="-356.987" font-family="Times Roman,serif" font-size="14.00">new</text>
<text text-anchor="start" x="278.435" y="-338.987" font-family="Times Roman,serif" font-size="14.00">show</text>
<text text-anchor="start" x="278.435" y="-320.987" font-family="Times Roman,serif" font-size="14.00">update</text>
<polyline fill="none" stroke="black" points="270.435,-311.587 392.435,-311.587 "/>
<polyline fill="none" stroke="black" points="270.435,-287.587 392.435,-287.587 "/>
<text text-anchor="start" x="278.435" y="-270.987" font-family="Times Roman,serif" font-size="14.00">_layout</text>
</g>
<!-- ApplicationController&#45;&gt;TasksController -->
<g id="edge6" class="edge"><title>ApplicationController&#45;&gt;TasksController</title>
<path fill="none" stroke="black" d="M239.004,-345.019C249.803,-347.539 260.414,-350.015 270.376,-352.34"/>
</g>
</g>
</svg>
