<?xml version="1.0" encoding="UTF-8" standalone="no"?>
<!DOCTYPE svg PUBLIC "-//W3C//DTD SVG 1.1//EN"
 "http://www.w3.org/Graphics/SVG/1.1/DTD/svg11.dtd">
<!-- Generated by graphviz version 2.26.3 (20100126.1600)
 -->
<!-- Title: controllers_diagram Pages: 1 -->
<svg width="776pt" height="581pt"
 viewBox="0.00 0.00 776.00 580.58" xmlns="http://www.w3.org/2000/svg" xmlns:xlink="http://www.w3.org/1999/xlink">
<g id="graph1" class="graph" transform="scale(1 1) rotate(0) translate(4 576.581)">
<title>controllers_diagram</title>
<polygon fill="white" stroke="white" points="-4,5 -4,-576.581 773,-576.581 773,5 -4,5"/>
<!-- _diagram_info -->
<g id="node1" class="node"><title>_diagram_info</title>
<text text-anchor="start" x="525" y="-78.3" font-family="Times Roman,serif" font-size="13.00">Controllers diagram</text>
<text text-anchor="start" x="525" y="-61.3" font-family="Times Roman,serif" font-size="13.00">Date: May 20 2013 &#45; 17:32</text>
<text text-anchor="start" x="525" y="-44.3" font-family="Times Roman,serif" font-size="13.00">Migration version: 20130520104420</text>
<text text-anchor="start" x="525" y="-27.3" font-family="Times Roman,serif" font-size="13.00">Generated by RailRoady 1.1.0</text>
<text text-anchor="start" x="525" y="-10.3" font-family="Times Roman,serif" font-size="13.00">http://railroady.prestonlee.com</text>
</g>
<!-- UsersController -->
<g id="node2" class="node"><title>UsersController</title>
<polyline fill="none" stroke="black" points="21.0055,-395.422 121.005,-395.422 "/>
<path fill="none" stroke="black" d="M121.005,-395.422C127.005,-395.422 133.005,-401.422 133.005,-407.422"/>
<polyline fill="none" stroke="black" points="133.005,-407.422 133.005,-521.422 "/>
<path fill="none" stroke="black" d="M133.005,-521.422C133.005,-527.422 127.005,-533.422 121.005,-533.422"/>
<polyline fill="none" stroke="black" points="121.005,-533.422 21.0055,-533.422 "/>
<path fill="none" stroke="black" d="M21.0055,-533.422C15.0055,-533.422 9.0055,-527.422 9.0055,-521.422"/>
<polyline fill="none" stroke="black" points="9.0055,-521.422 9.0055,-407.422 "/>
<path fill="none" stroke="black" d="M9.0055,-407.422C9.0055,-401.422 15.0055,-395.422 21.0055,-395.422"/>
<text text-anchor="middle" x="71.0055" y="-516.822" font-family="Times Roman,serif" font-size="14.00">UsersController</text>
<polyline fill="none" stroke="black" points="9.0055,-507.422 133.005,-507.422 "/>
<text text-anchor="start" x="17.0055" y="-490.822" font-family="Times Roman,serif" font-size="14.00">create</text>
<text text-anchor="start" x="17.0055" y="-472.822" font-family="Times Roman,serif" font-size="14.00">edit</text>
<text text-anchor="start" x="17.0055" y="-454.822" font-family="Times Roman,serif" font-size="14.00">new</text>
<polyline fill="none" stroke="black" points="9.0055,-445.422 133.005,-445.422 "/>
<polyline fill="none" stroke="black" points="9.0055,-421.422 133.005,-421.422 "/>
<text text-anchor="start" x="17.0055" y="-404.822" font-family="Times Roman,serif" font-size="14.00">_layout</text>
</g>
<!-- ProjectsController -->
<g id="node3" class="node"><title>ProjectsController</title>
<polyline fill="none" stroke="black" points="326.471,-1.5 442.471,-1.5 "/>
<path fill="none" stroke="black" d="M442.471,-1.5C448.471,-1.5 454.471,-7.5 454.471,-13.5"/>
<polyline fill="none" stroke="black" points="454.471,-13.5 454.471,-199.5 "/>
<path fill="none" stroke="black" d="M454.471,-199.5C454.471,-205.5 448.471,-211.5 442.471,-211.5"/>
<polyline fill="none" stroke="black" points="442.471,-211.5 326.471,-211.5 "/>
<path fill="none" stroke="black" d="M326.471,-211.5C320.471,-211.5 314.471,-205.5 314.471,-199.5"/>
<polyline fill="none" stroke="black" points="314.471,-199.5 314.471,-13.5 "/>
<path fill="none" stroke="black" d="M314.471,-13.5C314.471,-7.5 320.471,-1.5 326.471,-1.5"/>
<text text-anchor="middle" x="384.471" y="-194.9" font-family="Times Roman,serif" font-size="14.00">ProjectsController</text>
<polyline fill="none" stroke="black" points="314.471,-185.5 454.471,-185.5 "/>
<text text-anchor="start" x="322.471" y="-168.9" font-family="Times Roman,serif" font-size="14.00">create</text>
<text text-anchor="start" x="322.471" y="-150.9" font-family="Times Roman,serif" font-size="14.00">destroy</text>
<text text-anchor="start" x="322.471" y="-132.9" font-family="Times Roman,serif" font-size="14.00">edit</text>
<text text-anchor="start" x="322.471" y="-114.9" font-family="Times Roman,serif" font-size="14.00">index</text>
<text text-anchor="start" x="322.471" y="-96.9" font-family="Times Roman,serif" font-size="14.00">new</text>
<text text-anchor="start" x="322.471" y="-78.9" font-family="Times Roman,serif" font-size="14.00">show</text>
<text text-anchor="start" x="322.471" y="-60.9" font-family="Times Roman,serif" font-size="14.00">update</text>
<polyline fill="none" stroke="black" points="314.471,-51.5 454.471,-51.5 "/>
<polyline fill="none" stroke="black" points="314.471,-27.5 454.471,-27.5 "/>
<text text-anchor="start" x="322.471" y="-10.9" font-family="Times Roman,serif" font-size="14.00">_layout</text>
</g>
<!-- SessionsController -->
<g id="node4" class="node"><title>SessionsController</title>
<polyline fill="none" stroke="black" points="13,-34.4835 133,-34.4835 "/>
<path fill="none" stroke="black" d="M133,-34.4835C139,-34.4835 145,-40.4835 145,-46.4835"/>
<polyline fill="none" stroke="black" points="145,-46.4835 145,-160.484 "/>
<path fill="none" stroke="black" d="M145,-160.484C145,-166.484 139,-172.484 133,-172.484"/>
<polyline fill="none" stroke="black" points="133,-172.484 13,-172.484 "/>
<path fill="none" stroke="black" d="M13,-172.484C7,-172.484 1,-166.484 1,-160.484"/>
<polyline fill="none" stroke="black" points="1,-160.484 1,-46.4835 "/>
<path fill="none" stroke="black" d="M1,-46.4835C1,-40.4835 7,-34.4835 13,-34.4835"/>
<text text-anchor="middle" x="73" y="-155.884" font-family="Times Roman,serif" font-size="14.00">SessionsController</text>
<polyline fill="none" stroke="black" points="1,-146.484 145,-146.484 "/>
<text text-anchor="start" x="9" y="-129.884" font-family="Times Roman,serif" font-size="14.00">create</text>
<text text-anchor="start" x="9" y="-111.884" font-family="Times Roman,serif" font-size="14.00">destroy</text>
<text text-anchor="start" x="9" y="-93.8835" font-family="Times Roman,serif" font-size="14.00">new</text>
<polyline fill="none" stroke="black" points="1,-84.4835 145,-84.4835 "/>
<polyline fill="none" stroke="black" points="1,-60.4835 145,-60.4835 "/>
<text text-anchor="start" x="9" y="-43.8835" font-family="Times Roman,serif" font-size="14.00">_layout</text>
</g>
<!-- ApplicationController -->
<g id="node5" class="node"><title>ApplicationController</title>
<polyline fill="none" stroke="black" points="118.906,-224.21 332.906,-224.21 "/>
<path fill="none" stroke="black" d="M332.906,-224.21C338.906,-224.21 344.906,-230.21 344.906,-236.21"/>
<polyline fill="none" stroke="black" points="344.906,-236.21 344.906,-332.21 "/>
<path fill="none" stroke="black" d="M344.906,-332.21C344.906,-338.21 338.906,-344.21 332.906,-344.21"/>
<polyline fill="none" stroke="black" points="332.906,-344.21 118.906,-344.21 "/>
<path fill="none" stroke="black" d="M118.906,-344.21C112.906,-344.21 106.906,-338.21 106.906,-332.21"/>
<polyline fill="none" stroke="black" points="106.906,-332.21 106.906,-236.21 "/>
<path fill="none" stroke="black" d="M106.906,-236.21C106.906,-230.21 112.906,-224.21 118.906,-224.21"/>
<text text-anchor="middle" x="225.906" y="-327.61" font-family="Times Roman,serif" font-size="14.00">ApplicationController</text>
<polyline fill="none" stroke="black" points="106.906,-318.21 344.906,-318.21 "/>
<text text-anchor="start" x="114.906" y="-301.61" font-family="Times Roman,serif" font-size="14.00">_one_time_conditions_valid_12?</text>
<polyline fill="none" stroke="black" points="106.906,-292.21 344.906,-292.21 "/>
<polyline fill="none" stroke="black" points="106.906,-268.21 344.906,-268.21 "/>
<text text-anchor="start" x="114.906" y="-251.61" font-family="Times Roman,serif" font-size="14.00">_layout</text>
<text text-anchor="start" x="114.906" y="-233.61" font-family="Times Roman,serif" font-size="14.00">current_user</text>
</g>
<!-- ApplicationController&#45;&gt;UsersController -->
<g id="edge2" class="edge"><title>ApplicationController&#45;&gt;UsersController</title>
<path fill="none" stroke="black" d="M174.327,-344.218C160.245,-360.6 144.875,-378.482 130.396,-395.327"/>
</g>
<!-- ApplicationController&#45;&gt;ProjectsController -->
<g id="edge4" class="edge"><title>ApplicationController&#45;&gt;ProjectsController</title>
<path fill="none" stroke="black" d="M279.589,-224.045C290.73,-211.559 302.626,-198.227 314.258,-185.19"/>
</g>
<!-- ApplicationController&#45;&gt;SessionsController -->
<g id="edge6" class="edge"><title>ApplicationController&#45;&gt;SessionsController</title>
<path fill="none" stroke="black" d="M174.991,-224.031C161.091,-207.601 145.918,-189.668 131.626,-172.776"/>
</g>
<!-- TasksController -->
<g id="node6" class="node"><title>TasksController</title>
<polyline fill="none" stroke="black" points="332.879,-361.081 430.879,-361.081 "/>
<path fill="none" stroke="black" d="M430.879,-361.081C436.879,-361.081 442.879,-367.081 442.879,-373.081"/>
<polyline fill="none" stroke="black" points="442.879,-373.081 442.879,-559.081 "/>
<path fill="none" stroke="black" d="M442.879,-559.081C442.879,-565.081 436.879,-571.081 430.879,-571.081"/>
<polyline fill="none" stroke="black" points="430.879,-571.081 332.879,-571.081 "/>
<path fill="none" stroke="black" d="M332.879,-571.081C326.879,-571.081 320.879,-565.081 320.879,-559.081"/>
<polyline fill="none" stroke="black" points="320.879,-559.081 320.879,-373.081 "/>
<path fill="none" stroke="black" d="M320.879,-373.081C320.879,-367.081 326.879,-361.081 332.879,-361.081"/>
<text text-anchor="middle" x="381.879" y="-554.481" font-family="Times Roman,serif" font-size="14.00">TasksController</text>
<polyline fill="none" stroke="black" points="320.879,-545.081 442.879,-545.081 "/>
<text text-anchor="start" x="328.879" y="-528.481" font-family="Times Roman,serif" font-size="14.00">create</text>
<text text-anchor="start" x="328.879" y="-510.481" font-family="Times Roman,serif" font-size="14.00">destroy</text>
<text text-anchor="start" x="328.879" y="-492.481" font-family="Times Roman,serif" font-size="14.00">edit</text>
<text text-anchor="start" x="328.879" y="-474.481" font-family="Times Roman,serif" font-size="14.00">index</text>
<text text-anchor="start" x="328.879" y="-456.481" font-family="Times Roman,serif" font-size="14.00">new</text>
<text text-anchor="start" x="328.879" y="-438.481" font-family="Times Roman,serif" font-size="14.00">show</text>
<text text-anchor="start" x="328.879" y="-420.481" font-family="Times Roman,serif" font-size="14.00">update</text>
<polyline fill="none" stroke="black" points="320.879,-411.081 442.879,-411.081 "/>
<polyline fill="none" stroke="black" points="320.879,-387.081 442.879,-387.081 "/>
<text text-anchor="start" x="328.879" y="-370.481" font-family="Times Roman,serif" font-size="14.00">_layout</text>
</g>
<!-- ApplicationController&#45;&gt;TasksController -->
<g id="edge8" class="edge"><title>ApplicationController&#45;&gt;TasksController</title>
<path fill="none" stroke="black" d="M277.41,-344.265C291.252,-360.406 306.358,-378.02 320.672,-394.71"/>
</g>
</g>
</svg>
