<?xml version="1.0" encoding="UTF-8" standalone="no"?>
<!DOCTYPE svg PUBLIC "-//W3C//DTD SVG 1.1//EN"
 "http://www.w3.org/Graphics/SVG/1.1/DTD/svg11.dtd">
<!-- Generated by graphviz version 2.26.3 (20100126.1600)
 -->
<!-- Title: controllers_diagram Pages: 1 -->
<svg width="564pt" height="510pt"
 viewBox="0.00 0.00 564.00 509.98" xmlns="http://www.w3.org/2000/svg" xmlns:xlink="http://www.w3.org/1999/xlink">
<g id="graph1" class="graph" transform="scale(1 1) rotate(0) translate(4 505.978)">
<title>controllers_diagram</title>
<polygon fill="white" stroke="white" points="-4,5 -4,-505.978 561,-505.978 561,5 -4,5"/>
<!-- _diagram_info -->
<g id="node1" class="node"><title>_diagram_info</title>
<text text-anchor="start" x="313" y="-230.3" font-family="Times Roman,serif" font-size="13.00">Controllers diagram</text>
<text text-anchor="start" x="313" y="-213.3" font-family="Times Roman,serif" font-size="13.00">Date: May 05 2013 &#45; 11:50</text>
<text text-anchor="start" x="313" y="-196.3" font-family="Times Roman,serif" font-size="13.00">Migration version: 20130504151036</text>
<text text-anchor="start" x="313" y="-179.3" font-family="Times Roman,serif" font-size="13.00">Generated by RailRoady 1.1.0</text>
<text text-anchor="start" x="313" y="-162.3" font-family="Times Roman,serif" font-size="13.00">http://railroady.prestonlee.com</text>
</g>
<!-- ProjectsController -->
<g id="node2" class="node"><title>ProjectsController</title>
<polyline fill="none" stroke="black" points="13,-290.478 129,-290.478 "/>
<path fill="none" stroke="black" d="M129,-290.478C135,-290.478 141,-296.478 141,-302.478"/>
<polyline fill="none" stroke="black" points="141,-302.478 141,-488.478 "/>
<path fill="none" stroke="black" d="M141,-488.478C141,-494.478 135,-500.478 129,-500.478"/>
<polyline fill="none" stroke="black" points="129,-500.478 13,-500.478 "/>
<path fill="none" stroke="black" d="M13,-500.478C7,-500.478 1,-494.478 1,-488.478"/>
<polyline fill="none" stroke="black" points="1,-488.478 1,-302.478 "/>
<path fill="none" stroke="black" d="M1,-302.478C1,-296.478 7,-290.478 13,-290.478"/>
<text text-anchor="middle" x="71" y="-483.878" font-family="Times Roman,serif" font-size="14.00">ProjectsController</text>
<polyline fill="none" stroke="black" points="1,-474.478 141,-474.478 "/>
<text text-anchor="start" x="9" y="-457.878" font-family="Times Roman,serif" font-size="14.00">create</text>
<text text-anchor="start" x="9" y="-439.878" font-family="Times Roman,serif" font-size="14.00">destroy</text>
<text text-anchor="start" x="9" y="-421.878" font-family="Times Roman,serif" font-size="14.00">edit</text>
<text text-anchor="start" x="9" y="-403.878" font-family="Times Roman,serif" font-size="14.00">index</text>
<text text-anchor="start" x="9" y="-385.878" font-family="Times Roman,serif" font-size="14.00">new</text>
<text text-anchor="start" x="9" y="-367.878" font-family="Times Roman,serif" font-size="14.00">show</text>
<text text-anchor="start" x="9" y="-349.878" font-family="Times Roman,serif" font-size="14.00">update</text>
<polyline fill="none" stroke="black" points="1,-340.478 141,-340.478 "/>
<polyline fill="none" stroke="black" points="1,-316.478 141,-316.478 "/>
<text text-anchor="start" x="9" y="-299.878" font-family="Times Roman,serif" font-size="14.00">_layout</text>
</g>
<!-- ApplicationController -->
<g id="node3" class="node"><title>ApplicationController</title>
<polyline fill="none" stroke="black" points="167.806,-313.383 381.806,-313.383 "/>
<path fill="none" stroke="black" d="M381.806,-313.383C387.806,-313.383 393.806,-319.383 393.806,-325.383"/>
<polyline fill="none" stroke="black" points="393.806,-325.383 393.806,-403.383 "/>
<path fill="none" stroke="black" d="M393.806,-403.383C393.806,-409.383 387.806,-415.383 381.806,-415.383"/>
<polyline fill="none" stroke="black" points="381.806,-415.383 167.806,-415.383 "/>
<path fill="none" stroke="black" d="M167.806,-415.383C161.806,-415.383 155.806,-409.383 155.806,-403.383"/>
<polyline fill="none" stroke="black" points="155.806,-403.383 155.806,-325.383 "/>
<path fill="none" stroke="black" d="M155.806,-325.383C155.806,-319.383 161.806,-313.383 167.806,-313.383"/>
<text text-anchor="middle" x="274.806" y="-398.783" font-family="Times Roman,serif" font-size="14.00">ApplicationController</text>
<polyline fill="none" stroke="black" points="155.806,-389.383 393.806,-389.383 "/>
<text text-anchor="start" x="163.806" y="-372.783" font-family="Times Roman,serif" font-size="14.00">_one_time_conditions_valid_12?</text>
<polyline fill="none" stroke="black" points="155.806,-363.383 393.806,-363.383 "/>
<polyline fill="none" stroke="black" points="155.806,-339.383 393.806,-339.383 "/>
<text text-anchor="start" x="163.806" y="-322.783" font-family="Times Roman,serif" font-size="14.00">_layout</text>
</g>
<!-- ApplicationController&#45;&gt;ProjectsController -->
<g id="edge2" class="edge"><title>ApplicationController&#45;&gt;ProjectsController</title>
<path fill="none" stroke="black" d="M155.662,-382.561C150.784,-383.305 145.96,-384.041 141.237,-384.762"/>
</g>
<!-- TasksController -->
<g id="node4" class="node"><title>TasksController</title>
<polyline fill="none" stroke="black" points="107.147,-1.5 205.147,-1.5 "/>
<path fill="none" stroke="black" d="M205.147,-1.5C211.147,-1.5 217.147,-7.5 217.147,-13.5"/>
<polyline fill="none" stroke="black" points="217.147,-13.5 217.147,-199.5 "/>
<path fill="none" stroke="black" d="M217.147,-199.5C217.147,-205.5 211.147,-211.5 205.147,-211.5"/>
<polyline fill="none" stroke="black" points="205.147,-211.5 107.147,-211.5 "/>
<path fill="none" stroke="black" d="M107.147,-211.5C101.147,-211.5 95.1471,-205.5 95.1471,-199.5"/>
<polyline fill="none" stroke="black" points="95.1471,-199.5 95.1471,-13.5 "/>
<path fill="none" stroke="black" d="M95.1471,-13.5C95.1471,-7.5 101.147,-1.5 107.147,-1.5"/>
<text text-anchor="middle" x="156.147" y="-194.9" font-family="Times Roman,serif" font-size="14.00">TasksController</text>
<polyline fill="none" stroke="black" points="95.1471,-185.5 217.147,-185.5 "/>
<text text-anchor="start" x="103.147" y="-168.9" font-family="Times Roman,serif" font-size="14.00">create</text>
<text text-anchor="start" x="103.147" y="-150.9" font-family="Times Roman,serif" font-size="14.00">destroy</text>
<text text-anchor="start" x="103.147" y="-132.9" font-family="Times Roman,serif" font-size="14.00">edit</text>
<text text-anchor="start" x="103.147" y="-114.9" font-family="Times Roman,serif" font-size="14.00">index</text>
<text text-anchor="start" x="103.147" y="-96.9" font-family="Times Roman,serif" font-size="14.00">new</text>
<text text-anchor="start" x="103.147" y="-78.9" font-family="Times Roman,serif" font-size="14.00">show</text>
<text text-anchor="start" x="103.147" y="-60.9" font-family="Times Roman,serif" font-size="14.00">update</text>
<polyline fill="none" stroke="black" points="95.1471,-51.5 217.147,-51.5 "/>
<polyline fill="none" stroke="black" points="95.1471,-27.5 217.147,-27.5 "/>
<text text-anchor="start" x="103.147" y="-10.9" font-family="Times Roman,serif" font-size="14.00">_layout</text>
</g>
<!-- ApplicationController&#45;&gt;TasksController -->
<g id="edge4" class="edge"><title>ApplicationController&#45;&gt;TasksController</title>
<path fill="none" stroke="black" d="M251.221,-313.125C237.839,-284.042 220.589,-246.551 204.463,-211.506"/>
</g>
</g>
</svg>
