<?xml version="1.0" encoding="UTF-8" standalone="no"?>
<!DOCTYPE svg PUBLIC "-//W3C//DTD SVG 1.1//EN"
 "http://www.w3.org/Graphics/SVG/1.1/DTD/svg11.dtd">
<!-- Generated by graphviz version 2.26.3 (20100126.1600)
 -->
<!-- Title: models_diagram Pages: 1 -->
<svg width="594pt" height="512pt"
 viewBox="0.00 0.00 594.00 512.00" xmlns="http://www.w3.org/2000/svg" xmlns:xlink="http://www.w3.org/1999/xlink">
<g id="graph1" class="graph" transform="scale(1 1) rotate(0) translate(4 508)">
<title>models_diagram</title>
<polygon fill="white" stroke="white" points="-4,5 -4,-508 591,-508 591,5 -4,5"/>
<!-- _diagram_info -->
<g id="node1" class="node"><title>_diagram_info</title>
<text text-anchor="start" x="8" y="-480.8" font-family="Times Roman,serif" font-size="13.00">Models diagram</text>
<text text-anchor="start" x="8" y="-463.8" font-family="Times Roman,serif" font-size="13.00">Date: May 05 2013 &#45; 11:50</text>
<text text-anchor="start" x="8" y="-446.8" font-family="Times Roman,serif" font-size="13.00">Migration version: 20130504151036</text>
<text text-anchor="start" x="8" y="-429.8" font-family="Times Roman,serif" font-size="13.00">Generated by RailRoady 1.1.0</text>
<text text-anchor="start" x="8" y="-412.8" font-family="Times Roman,serif" font-size="13.00">http://railroady.prestonlee.com</text>
</g>
<!-- Task -->
<g id="node2" class="node"><title>Task</title>
<polyline fill="none" stroke="black" points="114.5,-199 255.5,-199 "/>
<path fill="none" stroke="black" d="M255.5,-199C261.5,-199 267.5,-205 267.5,-211"/>
<polyline fill="none" stroke="black" points="267.5,-211 267.5,-347 "/>
<path fill="none" stroke="black" d="M267.5,-347C267.5,-353 261.5,-359 255.5,-359"/>
<polyline fill="none" stroke="black" points="255.5,-359 114.5,-359 "/>
<path fill="none" stroke="black" d="M114.5,-359C108.5,-359 102.5,-353 102.5,-347"/>
<polyline fill="none" stroke="black" points="102.5,-347 102.5,-211 "/>
<path fill="none" stroke="black" d="M102.5,-211C102.5,-205 108.5,-199 114.5,-199"/>
<text text-anchor="middle" x="185" y="-342.4" font-family="Times Roman,serif" font-size="14.00">Task</text>
<polyline fill="none" stroke="black" points="102.5,-333 267.5,-333 "/>
<text text-anchor="start" x="110.5" y="-316.4" font-family="Times Roman,serif" font-size="14.00">id :integer</text>
<text text-anchor="start" x="110.5" y="-298.4" font-family="Times Roman,serif" font-size="14.00">name :string</text>
<text text-anchor="start" x="110.5" y="-280.4" font-family="Times Roman,serif" font-size="14.00">content :text</text>
<text text-anchor="start" x="110.5" y="-262.4" font-family="Times Roman,serif" font-size="14.00">deadline :datetime</text>
<text text-anchor="start" x="110.5" y="-244.4" font-family="Times Roman,serif" font-size="14.00">closed :boolean</text>
<text text-anchor="start" x="110.5" y="-226.4" font-family="Times Roman,serif" font-size="14.00">created_at :datetime</text>
<text text-anchor="start" x="110.5" y="-208.4" font-family="Times Roman,serif" font-size="14.00">updated_at :datetime</text>
</g>
<!-- Comment -->
<g id="node3" class="node"><title>Comment</title>
<polyline fill="none" stroke="black" points="209,-1 381,-1 "/>
<path fill="none" stroke="black" d="M381,-1C387,-1 393,-7 393,-13"/>
<polyline fill="none" stroke="black" points="393,-13 393,-149 "/>
<path fill="none" stroke="black" d="M393,-149C393,-155 387,-161 381,-161"/>
<polyline fill="none" stroke="black" points="381,-161 209,-161 "/>
<path fill="none" stroke="black" d="M209,-161C203,-161 197,-155 197,-149"/>
<polyline fill="none" stroke="black" points="197,-149 197,-13 "/>
<path fill="none" stroke="black" d="M197,-13C197,-7 203,-1 209,-1"/>
<text text-anchor="middle" x="295" y="-144.4" font-family="Times Roman,serif" font-size="14.00">Comment</text>
<polyline fill="none" stroke="black" points="197,-135 393,-135 "/>
<text text-anchor="start" x="205" y="-118.4" font-family="Times Roman,serif" font-size="14.00">id :integer</text>
<text text-anchor="start" x="205" y="-100.4" font-family="Times Roman,serif" font-size="14.00">content :text</text>
<text text-anchor="start" x="205" y="-82.4" font-family="Times Roman,serif" font-size="14.00">commentable_id :integer</text>
<text text-anchor="start" x="205" y="-64.4" font-family="Times Roman,serif" font-size="14.00">commentable_type :string</text>
<text text-anchor="start" x="205" y="-46.4" font-family="Times Roman,serif" font-size="14.00">user_id :integer</text>
<text text-anchor="start" x="205" y="-28.4" font-family="Times Roman,serif" font-size="14.00">created_at :datetime</text>
<text text-anchor="start" x="205" y="-10.4" font-family="Times Roman,serif" font-size="14.00">updated_at :datetime</text>
</g>
<!-- Task&#45;&gt;Comment -->
<g id="edge2" class="edge"><title>Task&#45;&gt;Comment</title>
<path fill="none" stroke="#872691" d="M233.49,-191.719C237.476,-184.544 241.508,-177.285 245.502,-170.097"/>
<ellipse fill="none" stroke="#872691" cx="231.525" cy="-195.255" rx="4.00002" ry="4.00002"/>
<polygon fill="#872691" stroke="#872691" points="245.676,-169.783 254.466,-163.227 248.104,-165.412 250.533,-161.041 250.533,-161.041 250.533,-161.041 248.104,-165.412 246.599,-158.856 245.676,-169.783 245.676,-169.783"/>
</g>
<!-- Project -->
<g id="node4" class="node"><title>Project</title>
<polyline fill="none" stroke="black" points="279.5,-397 420.5,-397 "/>
<path fill="none" stroke="black" d="M420.5,-397C426.5,-397 432.5,-403 432.5,-409"/>
<polyline fill="none" stroke="black" points="432.5,-409 432.5,-491 "/>
<path fill="none" stroke="black" d="M432.5,-491C432.5,-497 426.5,-503 420.5,-503"/>
<polyline fill="none" stroke="black" points="420.5,-503 279.5,-503 "/>
<path fill="none" stroke="black" d="M279.5,-503C273.5,-503 267.5,-497 267.5,-491"/>
<polyline fill="none" stroke="black" points="267.5,-491 267.5,-409 "/>
<path fill="none" stroke="black" d="M267.5,-409C267.5,-403 273.5,-397 279.5,-397"/>
<text text-anchor="middle" x="350" y="-486.4" font-family="Times Roman,serif" font-size="14.00">Project</text>
<polyline fill="none" stroke="black" points="267.5,-477 432.5,-477 "/>
<text text-anchor="start" x="275.5" y="-460.4" font-family="Times Roman,serif" font-size="14.00">id :integer</text>
<text text-anchor="start" x="275.5" y="-442.4" font-family="Times Roman,serif" font-size="14.00">name :string</text>
<text text-anchor="start" x="275.5" y="-424.4" font-family="Times Roman,serif" font-size="14.00">created_at :datetime</text>
<text text-anchor="start" x="275.5" y="-406.4" font-family="Times Roman,serif" font-size="14.00">updated_at :datetime</text>
</g>
<!-- Project&#45;&gt;Task -->
<g id="edge4" class="edge"><title>Project&#45;&gt;Task</title>
<path fill="none" stroke="#bacfbf" d="M292.945,-390.87C285.299,-382.947 277.331,-374.688 269.339,-366.406"/>
<ellipse fill="none" stroke="#bacfbf" cx="295.92" cy="-393.953" rx="4.00002" ry="4.00002"/>
<polygon fill="#bacfbf" stroke="#bacfbf" points="269.262,-366.326 265.556,-356.005 265.79,-362.727 262.318,-359.129 262.318,-359.129 262.318,-359.129 265.79,-362.727 259.08,-362.254 269.262,-366.326 269.262,-366.326"/>
</g>
<!-- Project&#45;&gt;Comment -->
<g id="edge10" class="edge"><title>Project&#45;&gt;Comment</title>
<path fill="none" stroke="#501efb" d="M322.67,-389.036C319.246,-379.472 316.185,-369.58 314,-360 299.847,-297.949 295.207,-226.289 294.048,-171.131"/>
<ellipse fill="none" stroke="#501efb" cx="324.093" cy="-392.872" rx="4.00001" ry="4.00001"/>
<polygon fill="#501efb" stroke="#501efb" points="294.046,-171.028 298.37,-160.95 293.958,-166.029 293.87,-161.03 293.87,-161.03 293.87,-161.03 293.958,-166.029 289.371,-161.109 294.046,-171.028 294.046,-171.028"/>
</g>
<!-- User -->
<g id="node5" class="node"><title>User</title>
<polyline fill="none" stroke="black" points="334.5,-217 475.5,-217 "/>
<path fill="none" stroke="black" d="M475.5,-217C481.5,-217 487.5,-223 487.5,-229"/>
<polyline fill="none" stroke="black" points="487.5,-229 487.5,-329 "/>
<path fill="none" stroke="black" d="M487.5,-329C487.5,-335 481.5,-341 475.5,-341"/>
<polyline fill="none" stroke="black" points="475.5,-341 334.5,-341 "/>
<path fill="none" stroke="black" d="M334.5,-341C328.5,-341 322.5,-335 322.5,-329"/>
<polyline fill="none" stroke="black" points="322.5,-329 322.5,-229 "/>
<path fill="none" stroke="black" d="M322.5,-229C322.5,-223 328.5,-217 334.5,-217"/>
<text text-anchor="middle" x="405" y="-324.4" font-family="Times Roman,serif" font-size="14.00">User</text>
<polyline fill="none" stroke="black" points="322.5,-315 487.5,-315 "/>
<text text-anchor="start" x="330.5" y="-298.4" font-family="Times Roman,serif" font-size="14.00">id :integer</text>
<text text-anchor="start" x="330.5" y="-280.4" font-family="Times Roman,serif" font-size="14.00">name :string</text>
<text text-anchor="start" x="330.5" y="-262.4" font-family="Times Roman,serif" font-size="14.00">mail :string</text>
<text text-anchor="start" x="330.5" y="-244.4" font-family="Times Roman,serif" font-size="14.00">created_at :datetime</text>
<text text-anchor="start" x="330.5" y="-226.4" font-family="Times Roman,serif" font-size="14.00">updated_at :datetime</text>
</g>
<!-- Project&#45;&gt;User -->
<g id="edge8" class="edge"><title>Project&#45;&gt;User</title>
<path fill="none" stroke="#6e9de8" d="M370.221,-387.131C374.031,-375.285 378.043,-362.813 381.932,-350.719"/>
<polygon fill="#6e9de8" stroke="#6e9de8" points="370.163,-387.312 362.817,-395.454 368.632,-392.072 367.101,-396.832 367.101,-396.832 367.101,-396.832 368.632,-392.072 371.385,-398.21 370.163,-387.312 370.163,-387.312"/>
<polygon fill="#6e9de8" stroke="#6e9de8" points="381.958,-350.64 389.304,-342.498 383.489,-345.88 385.02,-341.12 385.02,-341.12 385.02,-341.12 383.489,-345.88 380.736,-339.742 381.958,-350.64 381.958,-350.64"/>
</g>
<!-- Ownership -->
<g id="node6" class="node"><title>Ownership</title>
<polyline fill="none" stroke="black" points="433.5,-10 574.5,-10 "/>
<path fill="none" stroke="black" d="M574.5,-10C580.5,-10 586.5,-16 586.5,-22"/>
<polyline fill="none" stroke="black" points="586.5,-22 586.5,-140 "/>
<path fill="none" stroke="black" d="M586.5,-140C586.5,-146 580.5,-152 574.5,-152"/>
<polyline fill="none" stroke="black" points="574.5,-152 433.5,-152 "/>
<path fill="none" stroke="black" d="M433.5,-152C427.5,-152 421.5,-146 421.5,-140"/>
<polyline fill="none" stroke="black" points="421.5,-140 421.5,-22 "/>
<path fill="none" stroke="black" d="M421.5,-22C421.5,-16 427.5,-10 433.5,-10"/>
<text text-anchor="middle" x="504" y="-135.4" font-family="Times Roman,serif" font-size="14.00">Ownership</text>
<polyline fill="none" stroke="black" points="421.5,-126 586.5,-126 "/>
<text text-anchor="start" x="429.5" y="-109.4" font-family="Times Roman,serif" font-size="14.00">id :integer</text>
<text text-anchor="start" x="429.5" y="-91.4" font-family="Times Roman,serif" font-size="14.00">owner :boolean</text>
<text text-anchor="start" x="429.5" y="-73.4" font-family="Times Roman,serif" font-size="14.00">project_id :integer</text>
<text text-anchor="start" x="429.5" y="-55.4" font-family="Times Roman,serif" font-size="14.00">user_id :integer</text>
<text text-anchor="start" x="429.5" y="-37.4" font-family="Times Roman,serif" font-size="14.00">created_at :datetime</text>
<text text-anchor="start" x="429.5" y="-19.4" font-family="Times Roman,serif" font-size="14.00">updated_at :datetime</text>
</g>
<!-- Project&#45;&gt;Ownership -->
<g id="edge6" class="edge"><title>Project&#45;&gt;Ownership</title>
<path fill="none" stroke="#0bdb74" d="M439.597,-413.661C461.82,-400.2 482.982,-382.552 496,-360 530.408,-300.393 529.098,-221.045 521.113,-162.211"/>
<ellipse fill="none" stroke="#0bdb74" cx="436.128" cy="-415.687" rx="4.00002" ry="4.00002"/>
<polygon fill="#0bdb74" stroke="#0bdb74" points="521.099,-162.11 524.119,-151.569 520.382,-157.162 519.666,-152.213 519.666,-152.213 519.666,-152.213 520.382,-157.162 515.212,-152.858 521.099,-162.11 521.099,-162.11"/>
</g>
<!-- User&#45;&gt;Comment -->
<g id="edge14" class="edge"><title>User&#45;&gt;Comment</title>
<path fill="none" stroke="#68a132" d="M366.531,-209.755C359.365,-196.857 351.787,-183.217 344.348,-169.827"/>
<ellipse fill="none" stroke="#68a132" cx="368.555" cy="-213.398" rx="4.00002" ry="4.00002"/>
<polygon fill="#68a132" stroke="#68a132" points="344.343,-169.816 343.42,-158.889 341.914,-165.446 339.486,-161.075 339.486,-161.075 339.486,-161.075 341.914,-165.446 335.552,-163.26 344.343,-169.816 344.343,-169.816"/>
</g>
<!-- User&#45;&gt;Ownership -->
<g id="edge12" class="edge"><title>User&#45;&gt;Ownership</title>
<path fill="none" stroke="#5f8d2b" d="M439.708,-209.583C447.475,-194.051 455.776,-177.449 463.745,-161.51"/>
<ellipse fill="none" stroke="#5f8d2b" cx="437.841" cy="-213.317" rx="4.00002" ry="4.00002"/>
<polygon fill="#5f8d2b" stroke="#5f8d2b" points="463.92,-161.159 472.418,-154.227 466.156,-156.687 468.393,-152.215 468.393,-152.215 468.393,-152.215 466.156,-156.687 464.368,-150.202 463.92,-161.159 463.92,-161.159"/>
</g>
</g>
</svg>
