<?xml version="1.0" encoding="UTF-8" standalone="no"?>
<!DOCTYPE svg PUBLIC "-//W3C//DTD SVG 1.1//EN"
 "http://www.w3.org/Graphics/SVG/1.1/DTD/svg11.dtd">
<!-- Generated by graphviz version 2.26.3 (20100126.1600)
 -->
<!-- Title: models_diagram Pages: 1 -->
<svg width="480pt" height="250pt"
 viewBox="0.00 0.00 480.00 250.00" xmlns="http://www.w3.org/2000/svg" xmlns:xlink="http://www.w3.org/1999/xlink">
<g id="graph1" class="graph" transform="scale(1 1) rotate(0) translate(4 246)">
<title>models_diagram</title>
<polygon fill="white" stroke="white" points="-4,5 -4,-246 477,-246 477,5 -4,5"/>
<!-- _diagram_info -->
<g id="node1" class="node"><title>_diagram_info</title>
<text text-anchor="start" x="8" y="-225.8" font-family="Times Roman,serif" font-size="13.00">Models diagram</text>
<text text-anchor="start" x="8" y="-208.8" font-family="Times Roman,serif" font-size="13.00">Date: May 05 2013 &#45; 11:50</text>
<text text-anchor="start" x="8" y="-191.8" font-family="Times Roman,serif" font-size="13.00">Migration version: 20130504151036</text>
<text text-anchor="start" x="8" y="-174.8" font-family="Times Roman,serif" font-size="13.00">Generated by RailRoady 1.1.0</text>
<text text-anchor="start" x="8" y="-157.8" font-family="Times Roman,serif" font-size="13.00">http://railroady.prestonlee.com</text>
</g>
<!-- Task -->
<g id="node2" class="node"><title>Task</title>
<ellipse fill="none" stroke="black" cx="222" cy="-93" rx="33.234" ry="18.3848"/>
<text text-anchor="middle" x="222" y="-89.4" font-family="Times Roman,serif" font-size="14.00">Task</text>
</g>
<!-- Comment -->
<g id="node3" class="node"><title>Comment</title>
<ellipse fill="none" stroke="black" cx="266" cy="-19" rx="58.1882" ry="18.3848"/>
<text text-anchor="middle" x="266" y="-15.4" font-family="Times Roman,serif" font-size="14.00">Comment</text>
</g>
<!-- Task&#45;&gt;Comment -->
<g id="edge2" class="edge"><title>Task&#45;&gt;Comment</title>
<path fill="none" stroke="#1aa5a2" d="M236.845,-68.0342C241.058,-60.948 245.664,-53.201 249.946,-46.0003"/>
<ellipse fill="none" stroke="#1aa5a2" cx="234.695" cy="-71.6485" rx="4.00002" ry="4.00002"/>
<polygon fill="#1aa5a2" stroke="#1aa5a2" points="250.03,-45.8578 259.009,-39.5623 252.586,-41.5601 255.141,-37.2625 255.141,-37.2625 255.141,-37.2625 252.586,-41.5601 251.273,-34.9626 250.03,-45.8578 250.03,-45.8578"/>
</g>
<!-- Project -->
<g id="node4" class="node"><title>Project</title>
<ellipse fill="none" stroke="black" cx="314" cy="-195" rx="45.9619" ry="18.3848"/>
<text text-anchor="middle" x="314" y="-191.4" font-family="Times Roman,serif" font-size="14.00">Project</text>
</g>
<!-- Project&#45;&gt;Task -->
<g id="edge4" class="edge"><title>Project&#45;&gt;Task</title>
<path fill="none" stroke="#bb8ba6" d="M292.451,-171.108C277.784,-154.847 258.441,-133.402 243.735,-117.097"/>
<ellipse fill="none" stroke="#bb8ba6" cx="295.296" cy="-174.263" rx="4.00002" ry="4.00002"/>
<polygon fill="#bb8ba6" stroke="#bb8ba6" points="243.626,-116.977 240.27,-106.537 240.277,-113.264 236.928,-109.551 236.928,-109.551 236.928,-109.551 240.277,-113.264 233.587,-112.565 243.626,-116.977 243.626,-116.977"/>
</g>
<!-- Project&#45;&gt;Comment -->
<g id="edge10" class="edge"><title>Project&#45;&gt;Comment</title>
<path fill="none" stroke="#962f6c" d="M306.74,-168.381C297.863,-135.832 282.899,-80.9614 273.788,-47.5551"/>
<ellipse fill="none" stroke="#962f6c" cx="307.901" cy="-172.639" rx="4.00001" ry="4.00001"/>
<polygon fill="#962f6c" stroke="#962f6c" points="273.682,-47.1663 275.392,-36.3346 272.366,-42.3424 271.051,-37.5186 271.051,-37.5186 271.051,-37.5186 272.366,-42.3424 266.709,-38.7027 273.682,-47.1663 273.682,-47.1663"/>
</g>
<!-- User -->
<g id="node5" class="node"><title>User</title>
<ellipse fill="none" stroke="black" cx="345" cy="-93" rx="33.9411" ry="18.3848"/>
<text text-anchor="middle" x="345" y="-89.4" font-family="Times Roman,serif" font-size="14.00">User</text>
</g>
<!-- Project&#45;&gt;User -->
<g id="edge8" class="edge"><title>Project&#45;&gt;User</title>
<path fill="none" stroke="#faf9e6" d="M322.647,-166.548C326.944,-152.411 332.12,-135.379 336.409,-121.266"/>
<polygon fill="#faf9e6" stroke="#faf9e6" points="322.594,-166.724 315.38,-174.983 321.14,-171.508 319.686,-176.292 319.686,-176.292 319.686,-176.292 321.14,-171.508 323.991,-177.6 322.594,-166.724 322.594,-166.724"/>
<polygon fill="#faf9e6" stroke="#faf9e6" points="336.442,-121.158 343.656,-112.898 337.896,-116.374 339.35,-111.59 339.35,-111.59 339.35,-111.59 337.896,-116.374 335.045,-110.281 336.442,-121.158 336.442,-121.158"/>
</g>
<!-- Ownership -->
<g id="node6" class="node"><title>Ownership</title>
<ellipse fill="none" stroke="black" cx="407" cy="-19" rx="65.0538" ry="18.3848"/>
<text text-anchor="middle" x="407" y="-15.4" font-family="Times Roman,serif" font-size="14.00">Ownership</text>
</g>
<!-- Project&#45;&gt;Ownership -->
<g id="edge6" class="edge"><title>Project&#45;&gt;Ownership</title>
<path fill="none" stroke="#5b5879" d="M340.431,-172.236C356.617,-156.842 376.387,-135.157 388,-112 398.051,-91.958 402.785,-66.951 405.015,-47.9174"/>
<ellipse fill="none" stroke="#5b5879" cx="337.133" cy="-175.3" rx="4.00002" ry="4.00002"/>
<polygon fill="#5b5879" stroke="#5b5879" points="405.036,-47.7057 410.514,-38.2063 405.536,-42.7308 406.037,-37.7559 406.037,-37.7559 406.037,-37.7559 405.536,-42.7308 401.559,-37.3056 405.036,-47.7057 405.036,-47.7057"/>
</g>
<!-- User&#45;&gt;Comment -->
<g id="edge14" class="edge"><title>User&#45;&gt;Comment</title>
<path fill="none" stroke="#b97d95" d="M321.925,-71.385C312.599,-62.65 301.788,-52.5231 292.171,-43.5148"/>
<ellipse fill="none" stroke="#b97d95" cx="324.939" cy="-74.2086" rx="4.00002" ry="4.00002"/>
<polygon fill="#b97d95" stroke="#b97d95" points="292.064,-43.4144 287.842,-33.2938 288.415,-39.9962 284.766,-36.578 284.766,-36.578 284.766,-36.578 288.415,-39.9962 281.689,-39.8622 292.064,-43.4144 292.064,-43.4144"/>
</g>
<!-- User&#45;&gt;Ownership -->
<g id="edge12" class="edge"><title>User&#45;&gt;Ownership</title>
<path fill="none" stroke="#738e6d" d="M364.641,-69.5574C371.236,-61.6864 378.626,-52.8655 385.365,-44.8224"/>
<ellipse fill="none" stroke="#738e6d" cx="361.949" cy="-72.7708" rx="4.00002" ry="4.00002"/>
<polygon fill="#738e6d" stroke="#738e6d" points="385.411,-44.7677 395.282,-39.9924 388.622,-40.9351 391.833,-37.1024 391.833,-37.1024 391.833,-37.1024 388.622,-40.9351 388.384,-34.2124 385.411,-44.7677 385.411,-44.7677"/>
</g>
</g>
</svg>
