<?xml version="1.0" encoding="UTF-8" standalone="no"?>
<!DOCTYPE svg PUBLIC "-//W3C//DTD SVG 1.1//EN"
 "http://www.w3.org/Graphics/SVG/1.1/DTD/svg11.dtd">
<!-- Generated by graphviz version 2.26.3 (20100126.1600)
 -->
<!-- Title: models_diagram Pages: 1 -->
<svg width="681pt" height="548pt"
 viewBox="0.00 0.00 681.00 548.00" xmlns="http://www.w3.org/2000/svg" xmlns:xlink="http://www.w3.org/1999/xlink">
<g id="graph1" class="graph" transform="scale(1 1) rotate(0) translate(4 544)">
<title>models_diagram</title>
<polygon fill="white" stroke="white" points="-4,5 -4,-544 678,-544 678,5 -4,5"/>
<!-- _diagram_info -->
<g id="node1" class="node"><title>_diagram_info</title>
<text text-anchor="start" x="8" y="-507.8" font-family="Times Roman,serif" font-size="13.00">Models diagram</text>
<text text-anchor="start" x="8" y="-490.8" font-family="Times Roman,serif" font-size="13.00">Date: May 20 2013 &#45; 17:31</text>
<text text-anchor="start" x="8" y="-473.8" font-family="Times Roman,serif" font-size="13.00">Migration version: 20130520104420</text>
<text text-anchor="start" x="8" y="-456.8" font-family="Times Roman,serif" font-size="13.00">Generated by RailRoady 1.1.0</text>
<text text-anchor="start" x="8" y="-439.8" font-family="Times Roman,serif" font-size="13.00">http://railroady.prestonlee.com</text>
</g>
<!-- Task -->
<g id="node2" class="node"><title>Task</title>
<polyline fill="none" stroke="black" points="112.5,-199 253.5,-199 "/>
<path fill="none" stroke="black" d="M253.5,-199C259.5,-199 265.5,-205 265.5,-211"/>
<polyline fill="none" stroke="black" points="265.5,-211 265.5,-365 "/>
<path fill="none" stroke="black" d="M265.5,-365C265.5,-371 259.5,-377 253.5,-377"/>
<polyline fill="none" stroke="black" points="253.5,-377 112.5,-377 "/>
<path fill="none" stroke="black" d="M112.5,-377C106.5,-377 100.5,-371 100.5,-365"/>
<polyline fill="none" stroke="black" points="100.5,-365 100.5,-211 "/>
<path fill="none" stroke="black" d="M100.5,-211C100.5,-205 106.5,-199 112.5,-199"/>
<text text-anchor="middle" x="183" y="-360.4" font-family="Times Roman,serif" font-size="14.00">Task</text>
<polyline fill="none" stroke="black" points="100.5,-351 265.5,-351 "/>
<text text-anchor="start" x="108.5" y="-334.4" font-family="Times Roman,serif" font-size="14.00">id :integer</text>
<text text-anchor="start" x="108.5" y="-316.4" font-family="Times Roman,serif" font-size="14.00">name :string</text>
<text text-anchor="start" x="108.5" y="-298.4" font-family="Times Roman,serif" font-size="14.00">content :text</text>
<text text-anchor="start" x="108.5" y="-280.4" font-family="Times Roman,serif" font-size="14.00">deadline :datetime</text>
<text text-anchor="start" x="108.5" y="-262.4" font-family="Times Roman,serif" font-size="14.00">closed :boolean</text>
<text text-anchor="start" x="108.5" y="-244.4" font-family="Times Roman,serif" font-size="14.00">created_at :datetime</text>
<text text-anchor="start" x="108.5" y="-226.4" font-family="Times Roman,serif" font-size="14.00">updated_at :datetime</text>
<text text-anchor="start" x="108.5" y="-208.4" font-family="Times Roman,serif" font-size="14.00">project_id :integer</text>
</g>
<!-- Comment -->
<g id="node3" class="node"><title>Comment</title>
<polyline fill="none" stroke="black" points="207,-1 379,-1 "/>
<path fill="none" stroke="black" d="M379,-1C385,-1 391,-7 391,-13"/>
<polyline fill="none" stroke="black" points="391,-13 391,-149 "/>
<path fill="none" stroke="black" d="M391,-149C391,-155 385,-161 379,-161"/>
<polyline fill="none" stroke="black" points="379,-161 207,-161 "/>
<path fill="none" stroke="black" d="M207,-161C201,-161 195,-155 195,-149"/>
<polyline fill="none" stroke="black" points="195,-149 195,-13 "/>
<path fill="none" stroke="black" d="M195,-13C195,-7 201,-1 207,-1"/>
<text text-anchor="middle" x="293" y="-144.4" font-family="Times Roman,serif" font-size="14.00">Comment</text>
<polyline fill="none" stroke="black" points="195,-135 391,-135 "/>
<text text-anchor="start" x="203" y="-118.4" font-family="Times Roman,serif" font-size="14.00">id :integer</text>
<text text-anchor="start" x="203" y="-100.4" font-family="Times Roman,serif" font-size="14.00">content :text</text>
<text text-anchor="start" x="203" y="-82.4" font-family="Times Roman,serif" font-size="14.00">commentable_id :integer</text>
<text text-anchor="start" x="203" y="-64.4" font-family="Times Roman,serif" font-size="14.00">commentable_type :string</text>
<text text-anchor="start" x="203" y="-46.4" font-family="Times Roman,serif" font-size="14.00">user_id :integer</text>
<text text-anchor="start" x="203" y="-28.4" font-family="Times Roman,serif" font-size="14.00">created_at :datetime</text>
<text text-anchor="start" x="203" y="-10.4" font-family="Times Roman,serif" font-size="14.00">updated_at :datetime</text>
</g>
<!-- Task&#45;&gt;Comment -->
<g id="edge2" class="edge"><title>Task&#45;&gt;Comment</title>
<path fill="none" stroke="#0381d6" d="M234.346,-191.376C238.121,-184.272 241.919,-177.125 245.669,-170.069"/>
<ellipse fill="none" stroke="#0381d6" cx="232.325" cy="-195.179" rx="4.00002" ry="4.00002"/>
<polygon fill="#0381d6" stroke="#0381d6" points="245.694,-170.021 254.361,-163.302 248.041,-165.605 250.387,-161.19 250.387,-161.19 250.387,-161.19 248.041,-165.605 246.413,-159.078 245.694,-170.021 245.694,-170.021"/>
</g>
<!-- Project -->
<g id="node4" class="node"><title>Project</title>
<polyline fill="none" stroke="black" points="279.5,-415 420.5,-415 "/>
<path fill="none" stroke="black" d="M420.5,-415C426.5,-415 432.5,-421 432.5,-427"/>
<polyline fill="none" stroke="black" points="432.5,-427 432.5,-527 "/>
<path fill="none" stroke="black" d="M432.5,-527C432.5,-533 426.5,-539 420.5,-539"/>
<polyline fill="none" stroke="black" points="420.5,-539 279.5,-539 "/>
<path fill="none" stroke="black" d="M279.5,-539C273.5,-539 267.5,-533 267.5,-527"/>
<polyline fill="none" stroke="black" points="267.5,-527 267.5,-427 "/>
<path fill="none" stroke="black" d="M267.5,-427C267.5,-421 273.5,-415 279.5,-415"/>
<text text-anchor="middle" x="350" y="-522.4" font-family="Times Roman,serif" font-size="14.00">Project</text>
<polyline fill="none" stroke="black" points="267.5,-513 432.5,-513 "/>
<text text-anchor="start" x="275.5" y="-496.4" font-family="Times Roman,serif" font-size="14.00">id :integer</text>
<text text-anchor="start" x="275.5" y="-478.4" font-family="Times Roman,serif" font-size="14.00">name :string</text>
<text text-anchor="start" x="275.5" y="-460.4" font-family="Times Roman,serif" font-size="14.00">created_at :datetime</text>
<text text-anchor="start" x="275.5" y="-442.4" font-family="Times Roman,serif" font-size="14.00">updated_at :datetime</text>
<text text-anchor="start" x="275.5" y="-424.4" font-family="Times Roman,serif" font-size="14.00">description :text</text>
</g>
<!-- Project&#45;&gt;Task -->
<g id="edge4" class="edge"><title>Project&#45;&gt;Task</title>
<path fill="none" stroke="#6f95d9" d="M289.538,-408.573C282.79,-400.936 275.823,-393.051 268.835,-385.142"/>
<ellipse fill="none" stroke="#6f95d9" cx="292.438" cy="-411.855" rx="4.00002" ry="4.00002"/>
<polygon fill="#6f95d9" stroke="#6f95d9" points="268.468,-384.727 265.219,-374.254 265.157,-380.98 261.847,-377.234 261.847,-377.234 261.847,-377.234 265.157,-380.98 258.474,-380.213 268.468,-384.727 268.468,-384.727"/>
</g>
<!-- Project&#45;&gt;Comment -->
<g id="edge10" class="edge"><title>Project&#45;&gt;Comment</title>
<path fill="none" stroke="#1b8074" d="M320.19,-407.097C316.961,-397.458 314.094,-387.579 312,-378 297.06,-309.647 292.609,-230.504 291.731,-171.112"/>
<ellipse fill="none" stroke="#1b8074" cx="321.538" cy="-410.986" rx="4.00001" ry="4.00001"/>
<polygon fill="#1b8074" stroke="#1b8074" points="291.73,-171.008 296.113,-160.956 291.671,-166.009 291.613,-161.009 291.613,-161.009 291.613,-161.009 291.671,-166.009 287.113,-161.061 291.73,-171.008 291.73,-171.008"/>
</g>
<!-- User -->
<g id="node5" class="node"><title>User</title>
<polyline fill="none" stroke="black" points="332.5,-208 479.5,-208 "/>
<path fill="none" stroke="black" d="M479.5,-208C485.5,-208 491.5,-214 491.5,-220"/>
<polyline fill="none" stroke="black" points="491.5,-220 491.5,-356 "/>
<path fill="none" stroke="black" d="M491.5,-356C491.5,-362 485.5,-368 479.5,-368"/>
<polyline fill="none" stroke="black" points="479.5,-368 332.5,-368 "/>
<path fill="none" stroke="black" d="M332.5,-368C326.5,-368 320.5,-362 320.5,-356"/>
<polyline fill="none" stroke="black" points="320.5,-356 320.5,-220 "/>
<path fill="none" stroke="black" d="M320.5,-220C320.5,-214 326.5,-208 332.5,-208"/>
<text text-anchor="middle" x="406" y="-351.4" font-family="Times Roman,serif" font-size="14.00">User</text>
<polyline fill="none" stroke="black" points="320.5,-342 491.5,-342 "/>
<text text-anchor="start" x="328.5" y="-325.4" font-family="Times Roman,serif" font-size="14.00">id :integer</text>
<text text-anchor="start" x="328.5" y="-307.4" font-family="Times Roman,serif" font-size="14.00">name :string</text>
<text text-anchor="start" x="328.5" y="-289.4" font-family="Times Roman,serif" font-size="14.00">email :string</text>
<text text-anchor="start" x="328.5" y="-271.4" font-family="Times Roman,serif" font-size="14.00">created_at :datetime</text>
<text text-anchor="start" x="328.5" y="-253.4" font-family="Times Roman,serif" font-size="14.00">updated_at :datetime</text>
<text text-anchor="start" x="328.5" y="-235.4" font-family="Times Roman,serif" font-size="14.00">password_salt :string</text>
<text text-anchor="start" x="328.5" y="-217.4" font-family="Times Roman,serif" font-size="14.00">password_hash :string</text>
</g>
<!-- Project&#45;&gt;User -->
<g id="edge8" class="edge"><title>Project&#45;&gt;User</title>
<path fill="none" stroke="#9bebf0" d="M371.262,-405.241C373.933,-396.226 376.692,-386.916 379.432,-377.669"/>
<polygon fill="#9bebf0" stroke="#9bebf0" points="371.255,-405.265 364.099,-413.574 369.835,-410.059 368.414,-414.853 368.414,-414.853 368.414,-414.853 369.835,-410.059 372.729,-416.131 371.255,-405.265 371.255,-405.265"/>
<polygon fill="#9bebf0" stroke="#9bebf0" points="379.435,-377.657 386.59,-369.347 380.855,-372.863 382.276,-368.069 382.276,-368.069 382.276,-368.069 380.855,-372.863 377.961,-366.791 379.435,-377.657 379.435,-377.657"/>
</g>
<!-- Ownership -->
<g id="node6" class="node"><title>Ownership</title>
<polyline fill="none" stroke="black" points="520.5,-217 661.5,-217 "/>
<path fill="none" stroke="black" d="M661.5,-217C667.5,-217 673.5,-223 673.5,-229"/>
<polyline fill="none" stroke="black" points="673.5,-229 673.5,-347 "/>
<path fill="none" stroke="black" d="M673.5,-347C673.5,-353 667.5,-359 661.5,-359"/>
<polyline fill="none" stroke="black" points="661.5,-359 520.5,-359 "/>
<path fill="none" stroke="black" d="M520.5,-359C514.5,-359 508.5,-353 508.5,-347"/>
<polyline fill="none" stroke="black" points="508.5,-347 508.5,-229 "/>
<path fill="none" stroke="black" d="M508.5,-229C508.5,-223 514.5,-217 520.5,-217"/>
<text text-anchor="middle" x="591" y="-342.4" font-family="Times Roman,serif" font-size="14.00">Ownership</text>
<polyline fill="none" stroke="black" points="508.5,-333 673.5,-333 "/>
<text text-anchor="start" x="516.5" y="-316.4" font-family="Times Roman,serif" font-size="14.00">id :integer</text>
<text text-anchor="start" x="516.5" y="-298.4" font-family="Times Roman,serif" font-size="14.00">owner :boolean</text>
<text text-anchor="start" x="516.5" y="-280.4" font-family="Times Roman,serif" font-size="14.00">project_id :integer</text>
<text text-anchor="start" x="516.5" y="-262.4" font-family="Times Roman,serif" font-size="14.00">user_id :integer</text>
<text text-anchor="start" x="516.5" y="-244.4" font-family="Times Roman,serif" font-size="14.00">created_at :datetime</text>
<text text-anchor="start" x="516.5" y="-226.4" font-family="Times Roman,serif" font-size="14.00">updated_at :datetime</text>
</g>
<!-- Project&#45;&gt;Ownership -->
<g id="edge6" class="edge"><title>Project&#45;&gt;Ownership</title>
<path fill="none" stroke="#afe655" d="M439.524,-422.061C459.948,-408.404 481.17,-393.278 500,-378 504.643,-374.233 509.315,-370.264 513.959,-366.176"/>
<ellipse fill="none" stroke="#afe655" cx="435.965" cy="-424.423" rx="4.00002" ry="4.00002"/>
<polygon fill="#afe655" stroke="#afe655" points="514.292,-365.877 524.742,-362.551 518.015,-362.539 521.737,-359.201 521.737,-359.201 521.737,-359.201 518.015,-362.539 518.733,-355.851 514.292,-365.877 514.292,-365.877"/>
</g>
<!-- User&#45;&gt;Comment -->
<g id="edge12" class="edge"><title>User&#45;&gt;Comment</title>
<path fill="none" stroke="#37a33d" d="M358.355,-200.721C352.815,-190.573 347.159,-180.211 341.606,-170.04"/>
<ellipse fill="none" stroke="#37a33d" cx="360.395" cy="-204.457" rx="4.00002" ry="4.00002"/>
<polygon fill="#37a33d" stroke="#37a33d" points="341.55,-169.937 340.709,-159.004 339.155,-165.549 336.759,-161.16 336.759,-161.16 336.759,-161.16 339.155,-165.549 332.809,-163.316 341.55,-169.937 341.55,-169.937"/>
</g>
</g>
</svg>
