<?xml version="1.0" encoding="UTF-8" standalone="no"?>
<!DOCTYPE svg PUBLIC "-//W3C//DTD SVG 1.1//EN"
 "http://www.w3.org/Graphics/SVG/1.1/DTD/svg11.dtd">
<!-- Generated by graphviz version 2.26.3 (20100126.1600)
 -->
<!-- Title: models_diagram Pages: 1 -->
<svg width="677pt" height="530pt"
 viewBox="0.00 0.00 677.00 530.00" xmlns="http://www.w3.org/2000/svg" xmlns:xlink="http://www.w3.org/1999/xlink">
<g id="graph1" class="graph" transform="scale(1 1) rotate(0) translate(4 526)">
<title>models_diagram</title>
<polygon fill="white" stroke="white" points="-4,5 -4,-526 674,-526 674,5 -4,5"/>
<!-- _diagram_info -->
<g id="node1" class="node"><title>_diagram_info</title>
<text text-anchor="start" x="8" y="-489.8" font-family="Times Roman,serif" font-size="13.00">Models diagram</text>
<text text-anchor="start" x="8" y="-472.8" font-family="Times Roman,serif" font-size="13.00">Date: May 16 2013 &#45; 00:52</text>
<text text-anchor="start" x="8" y="-455.8" font-family="Times Roman,serif" font-size="13.00">Migration version: 20130515213358</text>
<text text-anchor="start" x="8" y="-438.8" font-family="Times Roman,serif" font-size="13.00">Generated by RailRoady 1.1.0</text>
<text text-anchor="start" x="8" y="-421.8" font-family="Times Roman,serif" font-size="13.00">http://railroady.prestonlee.com</text>
</g>
<!-- Task -->
<g id="node2" class="node"><title>Task</title>
<polyline fill="none" stroke="black" points="114.5,-199 255.5,-199 "/>
<path fill="none" stroke="black" d="M255.5,-199C261.5,-199 267.5,-205 267.5,-211"/>
<polyline fill="none" stroke="black" points="267.5,-211 267.5,-347 "/>
<path fill="none" stroke="black" d="M267.5,-347C267.5,-353 261.5,-359 255.5,-359"/>
<polyline fill="none" stroke="black" points="255.5,-359 114.5,-359 "/>
<path fill="none" stroke="black" d="M114.5,-359C108.5,-359 102.5,-353 102.5,-347"/>
<polyline fill="none" stroke="black" points="102.5,-347 102.5,-211 "/>
<path fill="none" stroke="black" d="M102.5,-211C102.5,-205 108.5,-199 114.5,-199"/>
<text text-anchor="middle" x="185" y="-342.4" font-family="Times Roman,serif" font-size="14.00">Task</text>
<polyline fill="none" stroke="black" points="102.5,-333 267.5,-333 "/>
<text text-anchor="start" x="110.5" y="-316.4" font-family="Times Roman,serif" font-size="14.00">id :integer</text>
<text text-anchor="start" x="110.5" y="-298.4" font-family="Times Roman,serif" font-size="14.00">name :string</text>
<text text-anchor="start" x="110.5" y="-280.4" font-family="Times Roman,serif" font-size="14.00">content :text</text>
<text text-anchor="start" x="110.5" y="-262.4" font-family="Times Roman,serif" font-size="14.00">deadline :datetime</text>
<text text-anchor="start" x="110.5" y="-244.4" font-family="Times Roman,serif" font-size="14.00">closed :boolean</text>
<text text-anchor="start" x="110.5" y="-226.4" font-family="Times Roman,serif" font-size="14.00">created_at :datetime</text>
<text text-anchor="start" x="110.5" y="-208.4" font-family="Times Roman,serif" font-size="14.00">updated_at :datetime</text>
</g>
<!-- Comment -->
<g id="node3" class="node"><title>Comment</title>
<polyline fill="none" stroke="black" points="154,-1 326,-1 "/>
<path fill="none" stroke="black" d="M326,-1C332,-1 338,-7 338,-13"/>
<polyline fill="none" stroke="black" points="338,-13 338,-149 "/>
<path fill="none" stroke="black" d="M338,-149C338,-155 332,-161 326,-161"/>
<polyline fill="none" stroke="black" points="326,-161 154,-161 "/>
<path fill="none" stroke="black" d="M154,-161C148,-161 142,-155 142,-149"/>
<polyline fill="none" stroke="black" points="142,-149 142,-13 "/>
<path fill="none" stroke="black" d="M142,-13C142,-7 148,-1 154,-1"/>
<text text-anchor="middle" x="240" y="-144.4" font-family="Times Roman,serif" font-size="14.00">Comment</text>
<polyline fill="none" stroke="black" points="142,-135 338,-135 "/>
<text text-anchor="start" x="150" y="-118.4" font-family="Times Roman,serif" font-size="14.00">id :integer</text>
<text text-anchor="start" x="150" y="-100.4" font-family="Times Roman,serif" font-size="14.00">content :text</text>
<text text-anchor="start" x="150" y="-82.4" font-family="Times Roman,serif" font-size="14.00">commentable_id :integer</text>
<text text-anchor="start" x="150" y="-64.4" font-family="Times Roman,serif" font-size="14.00">commentable_type :string</text>
<text text-anchor="start" x="150" y="-46.4" font-family="Times Roman,serif" font-size="14.00">user_id :integer</text>
<text text-anchor="start" x="150" y="-28.4" font-family="Times Roman,serif" font-size="14.00">created_at :datetime</text>
<text text-anchor="start" x="150" y="-10.4" font-family="Times Roman,serif" font-size="14.00">updated_at :datetime</text>
</g>
<!-- Task&#45;&gt;Comment -->
<g id="edge2" class="edge"><title>Task&#45;&gt;Comment</title>
<path fill="none" stroke="#084a1e" d="M209.49,-190.835C211.341,-184.171 213.211,-177.44 215.065,-170.766"/>
<ellipse fill="none" stroke="#084a1e" cx="208.362" cy="-194.897" rx="4.00001" ry="4.00001"/>
<polygon fill="#084a1e" stroke="#084a1e" points="215.09,-170.677 222.102,-162.246 216.428,-165.859 217.766,-161.041 217.766,-161.041 217.766,-161.041 216.428,-165.859 213.43,-159.837 215.09,-170.677 215.09,-170.677"/>
</g>
<!-- Project -->
<g id="node4" class="node"><title>Project</title>
<polyline fill="none" stroke="black" points="279.5,-397 420.5,-397 "/>
<path fill="none" stroke="black" d="M420.5,-397C426.5,-397 432.5,-403 432.5,-409"/>
<polyline fill="none" stroke="black" points="432.5,-409 432.5,-509 "/>
<path fill="none" stroke="black" d="M432.5,-509C432.5,-515 426.5,-521 420.5,-521"/>
<polyline fill="none" stroke="black" points="420.5,-521 279.5,-521 "/>
<path fill="none" stroke="black" d="M279.5,-521C273.5,-521 267.5,-515 267.5,-509"/>
<polyline fill="none" stroke="black" points="267.5,-509 267.5,-409 "/>
<path fill="none" stroke="black" d="M267.5,-409C267.5,-403 273.5,-397 279.5,-397"/>
<text text-anchor="middle" x="350" y="-504.4" font-family="Times Roman,serif" font-size="14.00">Project</text>
<polyline fill="none" stroke="black" points="267.5,-495 432.5,-495 "/>
<text text-anchor="start" x="275.5" y="-478.4" font-family="Times Roman,serif" font-size="14.00">id :integer</text>
<text text-anchor="start" x="275.5" y="-460.4" font-family="Times Roman,serif" font-size="14.00">name :string</text>
<text text-anchor="start" x="275.5" y="-442.4" font-family="Times Roman,serif" font-size="14.00">created_at :datetime</text>
<text text-anchor="start" x="275.5" y="-424.4" font-family="Times Roman,serif" font-size="14.00">updated_at :datetime</text>
<text text-anchor="start" x="275.5" y="-406.4" font-family="Times Roman,serif" font-size="14.00">description :text</text>
</g>
<!-- Project&#45;&gt;Task -->
<g id="edge4" class="edge"><title>Project&#45;&gt;Task</title>
<path fill="none" stroke="#591498" d="M287.479,-390.795C280.257,-382.917 272.818,-374.802 265.402,-366.711"/>
<ellipse fill="none" stroke="#591498" cx="290.282" cy="-393.854" rx="4.00002" ry="4.00002"/>
<polygon fill="#591498" stroke="#591498" points="265.361,-366.667 261.921,-356.255 261.983,-362.981 258.604,-359.295 258.604,-359.295 258.604,-359.295 261.983,-362.981 255.287,-362.336 265.361,-366.667 265.361,-366.667"/>
</g>
<!-- Project&#45;&gt;Comment -->
<g id="edge10" class="edge"><title>Project&#45;&gt;Comment</title>
<path fill="none" stroke="#eba2a2" d="M323.407,-389.062C320.058,-379.36 316.823,-369.474 314,-360 292.882,-289.125 295.33,-269.383 276,-198 273.614,-189.187 271.014,-180.037 268.341,-170.912"/>
<ellipse fill="none" stroke="#eba2a2" cx="324.79" cy="-393.017" rx="4.00001" ry="4.00001"/>
<polygon fill="#eba2a2" stroke="#eba2a2" points="268.256,-170.624 269.732,-159.758 266.836,-165.83 265.417,-161.036 265.417,-161.036 265.417,-161.036 266.836,-165.83 261.102,-162.313 268.256,-170.624 268.256,-170.624"/>
</g>
<!-- User -->
<g id="node5" class="node"><title>User</title>
<polyline fill="none" stroke="black" points="334.5,-208 475.5,-208 "/>
<path fill="none" stroke="black" d="M475.5,-208C481.5,-208 487.5,-214 487.5,-220"/>
<polyline fill="none" stroke="black" points="487.5,-220 487.5,-338 "/>
<path fill="none" stroke="black" d="M487.5,-338C487.5,-344 481.5,-350 475.5,-350"/>
<polyline fill="none" stroke="black" points="475.5,-350 334.5,-350 "/>
<path fill="none" stroke="black" d="M334.5,-350C328.5,-350 322.5,-344 322.5,-338"/>
<polyline fill="none" stroke="black" points="322.5,-338 322.5,-220 "/>
<path fill="none" stroke="black" d="M322.5,-220C322.5,-214 328.5,-208 334.5,-208"/>
<text text-anchor="middle" x="405" y="-333.4" font-family="Times Roman,serif" font-size="14.00">User</text>
<polyline fill="none" stroke="black" points="322.5,-324 487.5,-324 "/>
<text text-anchor="start" x="330.5" y="-307.4" font-family="Times Roman,serif" font-size="14.00">id :integer</text>
<text text-anchor="start" x="330.5" y="-289.4" font-family="Times Roman,serif" font-size="14.00">name :string</text>
<text text-anchor="start" x="330.5" y="-271.4" font-family="Times Roman,serif" font-size="14.00">email :string</text>
<text text-anchor="start" x="330.5" y="-253.4" font-family="Times Roman,serif" font-size="14.00">created_at :datetime</text>
<text text-anchor="start" x="330.5" y="-235.4" font-family="Times Roman,serif" font-size="14.00">updated_at :datetime</text>
<text text-anchor="start" x="330.5" y="-217.4" font-family="Times Roman,serif" font-size="14.00">password_salt :string</text>
</g>
<!-- Project&#45;&gt;User -->
<g id="edge8" class="edge"><title>Project&#45;&gt;User</title>
<path fill="none" stroke="#abd185" d="M371.954,-387.15C374.688,-378.204 377.498,-369.008 380.269,-359.936"/>
<polygon fill="#abd185" stroke="#abd185" points="371.927,-387.239 364.701,-395.487 370.466,-392.02 369.005,-396.802 369.005,-396.802 369.005,-396.802 370.466,-392.02 373.308,-398.117 371.927,-387.239 371.927,-387.239"/>
<polygon fill="#abd185" stroke="#abd185" points="380.335,-359.722 387.561,-351.474 381.796,-354.941 383.257,-350.159 383.257,-350.159 383.257,-350.159 381.796,-354.941 378.953,-348.844 380.335,-359.722 380.335,-359.722"/>
</g>
<!-- Ownership -->
<g id="node6" class="node"><title>Ownership</title>
<polyline fill="none" stroke="black" points="516.5,-208 657.5,-208 "/>
<path fill="none" stroke="black" d="M657.5,-208C663.5,-208 669.5,-214 669.5,-220"/>
<polyline fill="none" stroke="black" points="669.5,-220 669.5,-338 "/>
<path fill="none" stroke="black" d="M669.5,-338C669.5,-344 663.5,-350 657.5,-350"/>
<polyline fill="none" stroke="black" points="657.5,-350 516.5,-350 "/>
<path fill="none" stroke="black" d="M516.5,-350C510.5,-350 504.5,-344 504.5,-338"/>
<polyline fill="none" stroke="black" points="504.5,-338 504.5,-220 "/>
<path fill="none" stroke="black" d="M504.5,-220C504.5,-214 510.5,-208 516.5,-208"/>
<text text-anchor="middle" x="587" y="-333.4" font-family="Times Roman,serif" font-size="14.00">Ownership</text>
<polyline fill="none" stroke="black" points="504.5,-324 669.5,-324 "/>
<text text-anchor="start" x="512.5" y="-307.4" font-family="Times Roman,serif" font-size="14.00">id :integer</text>
<text text-anchor="start" x="512.5" y="-289.4" font-family="Times Roman,serif" font-size="14.00">owner :boolean</text>
<text text-anchor="start" x="512.5" y="-271.4" font-family="Times Roman,serif" font-size="14.00">project_id :integer</text>
<text text-anchor="start" x="512.5" y="-253.4" font-family="Times Roman,serif" font-size="14.00">user_id :integer</text>
<text text-anchor="start" x="512.5" y="-235.4" font-family="Times Roman,serif" font-size="14.00">created_at :datetime</text>
<text text-anchor="start" x="512.5" y="-217.4" font-family="Times Roman,serif" font-size="14.00">updated_at :datetime</text>
</g>
<!-- Project&#45;&gt;Ownership -->
<g id="edge6" class="edge"><title>Project&#45;&gt;Ownership</title>
<path fill="none" stroke="#0117a5" d="M439.746,-400.868C458.655,-387.869 478.245,-373.825 496,-360 497.405,-358.906 498.817,-357.796 500.232,-356.672"/>
<ellipse fill="none" stroke="#0117a5" cx="436.116" cy="-403.35" rx="4.00002" ry="4.00002"/>
<polygon fill="#0117a5" stroke="#0117a5" points="500.588,-356.385 511.197,-353.608 504.48,-353.246 508.371,-350.106 508.371,-350.106 508.371,-350.106 504.48,-353.246 505.546,-346.604 500.588,-356.385 500.588,-356.385"/>
</g>
</g>
</svg>
