<?xml version="1.0" encoding="UTF-8" standalone="no"?>
<!DOCTYPE svg PUBLIC "-//W3C//DTD SVG 1.1//EN"
 "http://www.w3.org/Graphics/SVG/1.1/DTD/svg11.dtd">
<!-- Generated by graphviz version 2.26.3 (20100126.1600)
 -->
<!-- Title: models_diagram Pages: 1 -->
<svg width="535pt" height="250pt"
 viewBox="0.00 0.00 535.00 250.00" xmlns="http://www.w3.org/2000/svg" xmlns:xlink="http://www.w3.org/1999/xlink">
<g id="graph1" class="graph" transform="scale(1 1) rotate(0) translate(4 246)">
<title>models_diagram</title>
<polygon fill="white" stroke="white" points="-4,5 -4,-246 532,-246 532,5 -4,5"/>
<!-- _diagram_info -->
<g id="node1" class="node"><title>_diagram_info</title>
<text text-anchor="start" x="8" y="-225.8" font-family="Times Roman,serif" font-size="13.00">Models diagram</text>
<text text-anchor="start" x="8" y="-208.8" font-family="Times Roman,serif" font-size="13.00">Date: May 20 2013 &#45; 17:31</text>
<text text-anchor="start" x="8" y="-191.8" font-family="Times Roman,serif" font-size="13.00">Migration version: 20130520104420</text>
<text text-anchor="start" x="8" y="-174.8" font-family="Times Roman,serif" font-size="13.00">Generated by RailRoady 1.1.0</text>
<text text-anchor="start" x="8" y="-157.8" font-family="Times Roman,serif" font-size="13.00">http://railroady.prestonlee.com</text>
</g>
<!-- Task -->
<g id="node2" class="node"><title>Task</title>
<ellipse fill="none" stroke="black" cx="222" cy="-93" rx="33.234" ry="18.3848"/>
<text text-anchor="middle" x="222" y="-89.4" font-family="Times Roman,serif" font-size="14.00">Task</text>
</g>
<!-- Comment -->
<g id="node3" class="node"><title>Comment</title>
<ellipse fill="none" stroke="black" cx="283" cy="-19" rx="58.1882" ry="18.3848"/>
<text text-anchor="middle" x="283" y="-15.4" font-family="Times Roman,serif" font-size="14.00">Comment</text>
</g>
<!-- Task&#45;&gt;Comment -->
<g id="edge2" class="edge"><title>Task&#45;&gt;Comment</title>
<path fill="none" stroke="#e8bc69" d="M241.324,-69.5574C247.813,-61.6864 255.084,-52.8655 261.714,-44.8224"/>
<ellipse fill="none" stroke="#e8bc69" cx="238.692" cy="-72.7504" rx="4.00002" ry="4.00002"/>
<polygon fill="#e8bc69" stroke="#e8bc69" points="261.717,-44.8188 271.55,-39.9648 264.897,-40.9606 268.078,-37.1024 268.078,-37.1024 268.078,-37.1024 264.897,-40.9606 264.605,-34.2401 261.717,-44.8188 261.717,-44.8188"/>
</g>
<!-- Project -->
<g id="node4" class="node"><title>Project</title>
<ellipse fill="none" stroke="black" cx="314" cy="-195" rx="45.9619" ry="18.3848"/>
<text text-anchor="middle" x="314" y="-191.4" font-family="Times Roman,serif" font-size="14.00">Project</text>
</g>
<!-- Project&#45;&gt;Task -->
<g id="edge4" class="edge"><title>Project&#45;&gt;Task</title>
<path fill="none" stroke="#18e927" d="M292.451,-171.108C277.784,-154.847 258.441,-133.402 243.735,-117.097"/>
<ellipse fill="none" stroke="#18e927" cx="295.296" cy="-174.263" rx="4.00002" ry="4.00002"/>
<polygon fill="#18e927" stroke="#18e927" points="243.626,-116.977 240.27,-106.537 240.277,-113.264 236.928,-109.551 236.928,-109.551 236.928,-109.551 240.277,-113.264 233.587,-112.565 243.626,-116.977 243.626,-116.977"/>
</g>
<!-- Project&#45;&gt;Comment -->
<g id="edge10" class="edge"><title>Project&#45;&gt;Comment</title>
<path fill="none" stroke="#32e04d" d="M309.311,-168.381C303.578,-135.832 293.914,-80.9614 288.03,-47.5551"/>
<ellipse fill="none" stroke="#32e04d" cx="310.047" cy="-172.558" rx="4.00001" ry="4.00001"/>
<polygon fill="#32e04d" stroke="#32e04d" points="287.997,-47.367 290.694,-36.738 287.129,-42.4428 286.262,-37.5186 286.262,-37.5186 286.262,-37.5186 287.129,-42.4428 281.83,-38.2993 287.997,-47.367 287.997,-47.367"/>
</g>
<!-- User -->
<g id="node5" class="node"><title>User</title>
<ellipse fill="none" stroke="black" cx="345" cy="-93" rx="33.9411" ry="18.3848"/>
<text text-anchor="middle" x="345" y="-89.4" font-family="Times Roman,serif" font-size="14.00">User</text>
</g>
<!-- Project&#45;&gt;User -->
<g id="edge8" class="edge"><title>Project&#45;&gt;User</title>
<path fill="none" stroke="#f05879" d="M322.647,-166.548C326.944,-152.411 332.12,-135.379 336.409,-121.266"/>
<polygon fill="#f05879" stroke="#f05879" points="322.594,-166.724 315.38,-174.983 321.14,-171.508 319.686,-176.292 319.686,-176.292 319.686,-176.292 321.14,-171.508 323.991,-177.6 322.594,-166.724 322.594,-166.724"/>
<polygon fill="#f05879" stroke="#f05879" points="336.442,-121.158 343.656,-112.898 337.896,-116.374 339.35,-111.59 339.35,-111.59 339.35,-111.59 337.896,-116.374 335.045,-110.281 336.442,-121.158 336.442,-121.158"/>
</g>
<!-- Ownership -->
<g id="node6" class="node"><title>Ownership</title>
<ellipse fill="none" stroke="black" cx="462" cy="-93" rx="65.0538" ry="18.3848"/>
<text text-anchor="middle" x="462" y="-89.4" font-family="Times Roman,serif" font-size="14.00">Ownership</text>
</g>
<!-- Project&#45;&gt;Ownership -->
<g id="edge6" class="edge"><title>Project&#45;&gt;Ownership</title>
<path fill="none" stroke="#c9b859" d="M344.135,-174.231C368.665,-157.326 403.257,-133.485 428.622,-116.004"/>
<ellipse fill="none" stroke="#c9b859" cx="340.745" cy="-176.568" rx="4.00002" ry="4.00002"/>
<polygon fill="#c9b859" stroke="#c9b859" points="428.943,-115.782 439.731,-113.813 433.06,-112.945 437.177,-110.108 437.177,-110.108 437.177,-110.108 433.06,-112.945 434.624,-106.402 428.943,-115.782 428.943,-115.782"/>
</g>
<!-- User&#45;&gt;Comment -->
<g id="edge12" class="edge"><title>User&#45;&gt;Comment</title>
<path fill="none" stroke="#37a4a0" d="M325.359,-69.5574C318.764,-61.6864 311.374,-52.8655 304.635,-44.8224"/>
<ellipse fill="none" stroke="#37a4a0" cx="328.051" cy="-72.7708" rx="4.00002" ry="4.00002"/>
<polygon fill="#37a4a0" stroke="#37a4a0" points="304.589,-44.7677 301.616,-34.2124 301.378,-40.9351 298.167,-37.1024 298.167,-37.1024 298.167,-37.1024 301.378,-40.9351 294.718,-39.9924 304.589,-44.7677 304.589,-44.7677"/>
</g>
</g>
</svg>
